<svg xmlns="http://www.w3.org/2000/svg" width="24" height="32" viewBox="88 201 180 242">
  <path d="M 524.74 348.96 C507.88,357.26 490.05,351.34 481.19,334.50 C478.87,330.09 478.56,328.38 478.60,320.00 C478.63,313.24 479.14,309.40 480.36,306.68 C482.83,301.20 489.61,294.24 495.46,291.19 C499.87,288.89 501.68,288.56 510.00,288.56 C518.38,288.56 520.18,288.89 525.30,291.38 C547.94,302.38 547.60,337.70 524.74,348.96 ZM 333.50 350.10 C330.08,351.68 326.92,351.96 311.81,351.98 C302.08,351.99 293.88,351.61 293.59,351.14 C293.18,350.48 292.78,312.82 292.97,292.25 L 293.00 289.00 L 311.25 289.02 C331.32,289.05 335.48,289.98 339.75,295.40 C344.34,301.24 343.41,311.79 337.90,316.43 L 334.85 319.00 L 337.96 321.62 C342.17,325.16 344.00,329.03 344.00,334.39 C344.00,342.32 341.19,346.53 333.50,350.10 ZM 367.67 341.50 L 364.33 351.50 L 356.09 351.79 C347.89,352.08 347.84,352.07 348.57,349.79 C348.97,348.53 354.13,334.45 360.05,318.50 L 370.80 289.50 L 389.50 288.94 L 401.12 319.94 C407.50,336.99 412.49,351.17 412.20,351.47 C411.06,352.60 397.23,351.98 396.23,350.75 C395.67,350.06 394.63,347.57 393.94,345.22 L 392.67 340.94 ZM 435.50 324.50 L 434.50 351.50 L 427.34 351.79 C423.39,351.95 419.92,351.68 419.61,351.18 C419.21,350.52 418.70,302.38 418.97,290.25 C418.99,289.36 421.28,289.00 426.97,289.00 L 434.94 289.00 L 435.50 315.38 L 445.43 302.19 L 455.37 289.00 L 473.98 289.00 L 468.58 295.75 C465.61,299.46 460.27,306.30 456.71,310.93 L 450.25 319.37 L 462.07 334.88 C468.56,343.40 473.66,350.75 473.38,351.19 C473.11,351.64 469.14,352.00 464.56,352.00 L 456.25 352.00 ZM 505.50 337.83 C509.34,339.21 514.58,338.40 518.87,335.76 C528.74,329.69 528.18,309.25 518.00,303.76 C510.30,299.61 498.63,303.51 495.51,311.27 C493.63,315.97 493.56,324.04 495.38,328.28 C497.06,332.22 501.48,336.38 505.50,337.83 ZM 186.78 351.56 C184.19,352.90 181.15,354.00 180.03,354.00 C178.02,354.00 178.00,353.61 178.00,303.50 C178.00,261.00 178.22,253.00 179.39,253.00 C180.16,253.00 181.06,253.71 181.39,254.58 C182.47,257.38 182.06,285.02 180.92,287.16 C180.22,288.46 179.77,300.02 179.66,319.69 C179.50,347.90 179.62,350.26 181.25,351.13 C182.64,351.88 183.25,351.55 184.16,349.54 C185.01,347.69 186.09,347.00 188.15,347.00 C191.07,347.00 192.32,346.20 199.71,339.58 C202.42,337.16 203.87,335.11 203.53,334.21 C202.91,332.60 204.79,329.75 205.98,330.49 C207.64,331.51 210.22,326.90 210.48,322.44 C210.64,319.84 211.37,317.38 212.13,316.90 C213.66,315.93 217.00,315.70 217.00,316.56 C217.00,318.14 211.72,328.00 210.87,328.00 C210.33,328.00 210.13,328.41 210.44,328.91 C212.09,331.57 196.41,346.58 186.78,351.56 ZM 309.00 326.00 L 309.00 339.00 L 316.75 338.98 C321.01,338.98 325.00,338.64 325.60,338.23 C329.27,335.78 329.49,328.87 325.95,326.97 C324.95,326.44 320.73,326.00 316.57,326.00 ZM 309.00 301.00 L 309.00 314.00 L 315.78 314.00 C324.18,314.00 327.00,312.37 327.00,307.50 C327.00,302.63 324.18,301.00 315.78,301.00 ZM 373.00 327.75 C373.00,329.14 386.51,329.60 387.36,328.23 C387.93,327.30 381.02,307.00 380.13,307.01 C379.44,307.02 373.00,325.75 373.00,327.75 ZM 534.64 325.31 C535.79,326.46 536.72,325.11 537.33,321.38 C537.93,317.69 536.75,314.00 534.96,314.00 C533.91,314.00 533.61,324.28 534.64,325.31 ZM 314.74 295.91 C315.71,296.48 317.53,296.95 318.79,296.97 C320.78,297.00 320.93,296.74 319.97,294.94 C318.46,292.12 316.35,291.51 314.51,293.35 C313.13,294.73 313.15,294.99 314.74,295.91 ZM 314.50 345.99 C315.30,347.29 316.33,347.26 319.42,345.85 C322.42,344.49 321.95,342.98 318.75,343.68 C314.57,344.60 313.87,344.98 314.50,345.99 ZM 186.67 340.58 C187.41,342.52 184.57,345.73 183.55,344.09 C182.69,342.69 183.81,339.00 185.10,339.00 C185.63,339.00 186.34,339.71 186.67,340.58 ZM 333.57 304.11 C334.11,304.99 337.00,305.39 337.00,304.58 C337.00,304.35 336.72,303.44 336.38,302.56 C335.91,301.32 335.45,301.21 334.39,302.09 C333.64,302.71 333.27,303.63 333.57,304.11 ZM 434.24 323.50 C433.83,323.95 434.07,323.99 434.77,323.59 C435.46,323.19 435.77,322.44 435.46,321.93 C435.14,321.42 435.36,321.00 435.94,321.00 C437.51,321.00 437.23,319.30 435.55,318.66 C434.53,318.27 434.29,318.58 434.72,319.71 C435.18,320.91 434.98,321.11 433.92,320.47 C432.75,319.77 432.72,319.89 433.74,321.15 C434.42,321.99 434.65,323.05 434.24,323.50 ZM 318.75 321.31 C319.71,321.56 320.52,321.82 320.54,321.88 C320.56,321.95 320.57,321.17 320.57,320.15 C320.57,318.87 320.02,318.44 318.79,318.77 C316.50,319.36 316.49,320.72 318.75,321.31 ZM 306.00 345.00 C307.87,346.15 308.71,345.31 307.20,343.80 C306.56,343.16 305.70,342.97 305.30,343.37 C304.89,343.78 305.21,344.51 306.00,345.00 Z" fill="rgb(38,23,68)"/>
  <path d="M 179.63 253.02 C179.67,253.02 179.71,253.01 179.75,253.01 C183.82,253.05 194.50,256.21 198.53,258.57 C200.93,259.97 204.70,262.88 206.91,265.03 C216.13,273.98 219.00,282.21 219.00,299.73 C219.00,307.16 218.56,311.93 216.98,316.77 C216.99,316.69 217.00,316.62 217.00,316.56 C217.00,315.70 213.66,315.93 212.13,316.90 C211.37,317.38 210.64,319.84 210.48,322.44 C210.22,326.90 207.64,331.51 205.98,330.49 C204.79,329.75 202.91,332.60 203.53,334.21 C203.87,335.11 202.42,337.16 199.71,339.58 C192.32,346.20 191.07,347.00 188.15,347.00 C186.09,347.00 185.01,347.69 184.16,349.54 C183.25,351.55 182.64,351.88 181.25,351.13 C179.62,350.26 179.50,347.90 179.66,319.69 C179.77,300.02 180.22,288.46 180.92,287.16 C182.06,285.02 182.47,257.38 181.39,254.58 C181.09,253.80 180.33,253.14 179.63,253.02 ZM 534.64 325.31 C533.61,324.28 533.91,314.00 534.96,314.00 C536.75,314.00 537.93,317.69 537.33,321.38 C536.72,325.11 535.79,326.46 534.64,325.31 ZM 314.74 295.91 C313.15,294.99 313.13,294.73 314.51,293.35 C316.35,291.51 318.46,292.12 319.97,294.94 C320.93,296.74 320.78,297.00 318.79,296.97 C317.53,296.95 315.71,296.48 314.74,295.91 ZM 314.50 345.99 C313.87,344.98 314.57,344.60 318.75,343.68 C321.95,342.98 322.42,344.49 319.42,345.85 C316.33,347.26 315.30,347.29 314.50,345.99 ZM 186.67 340.58 C186.34,339.71 185.63,339.00 185.10,339.00 C183.81,339.00 182.69,342.69 183.55,344.09 C184.57,345.73 187.41,342.52 186.67,340.58 ZM 333.57 304.11 C333.27,303.63 333.64,302.71 334.39,302.09 C335.45,301.21 335.91,301.32 336.38,302.56 C336.72,303.44 337.00,304.35 337.00,304.58 C337.00,305.39 334.11,304.99 333.57,304.11 ZM 434.24 323.50 C434.65,323.05 434.42,321.99 433.74,321.15 C432.72,319.89 432.75,319.77 433.92,320.47 C434.98,321.11 435.18,320.91 434.72,319.71 C434.29,318.58 434.53,318.27 435.55,318.66 C437.23,319.30 437.51,321.00 435.94,321.00 C435.36,321.00 435.14,321.42 435.46,321.93 C435.77,322.44 435.46,323.19 434.77,323.59 C434.07,323.99 433.83,323.95 434.24,323.50 ZM 318.75 321.31 C316.49,320.72 316.50,319.36 318.79,318.77 C320.02,318.44 320.57,318.87 320.57,320.15 C320.57,321.17 320.56,321.95 320.54,321.88 C320.52,321.82 319.71,321.56 318.75,321.31 ZM 306.00 345.00 C305.21,344.51 304.89,343.78 305.30,343.37 C305.70,342.97 306.56,343.16 307.20,343.80 C308.71,345.31 307.87,346.15 306.00,345.00 ZM 216.22 318.89 C215.18,321.55 213.78,324.34 211.91,327.69 C211.45,328.52 210.94,329.36 210.39,330.20 C210.60,329.64 210.62,329.20 210.44,328.91 C210.13,328.41 210.33,328.00 210.87,328.00 C211.51,328.00 214.71,322.32 216.22,318.89 ZM 186.78 351.56 C191.97,348.88 198.90,343.30 203.94,338.30 C198.91,343.64 192.76,348.47 186.78,351.56 ZM 178.80 254.14 C178.14,257.50 178.00,269.39 178.00,303.50 C178.00,267.58 178.06,257.10 178.80,254.14 Z" fill="rgb(41,22,84)"/>
  <path d="M 137.09 301.00 C136.93,308.98 136.66,315.65 136.49,315.83 C135.68,316.68 135.49,301.37 136.19,291.74 C136.71,284.59 137.52,280.13 138.60,278.49 C141.40,274.21 141.99,275.77 139.64,281.25 C137.71,285.75 137.34,288.58 137.09,301.00 Z" fill="rgb(110,50,197)"/>
  <!-- <path d="M 0.00 0.00 L 640.00 0.00 L 640.00 640.00 L 0.00 640.00 L 0.00 555.00 C0.00,572.33 0.36,582.00 1.00,582.00 C1.55,582.00 2.01,579.41 2.02,576.25 C2.03,569.86 2.45,568.85 5.85,567.06 C8.53,565.65 8.44,564.53 4.95,556.00 C2.57,550.17 1.42,542.44 2.38,538.63 C2.69,537.37 4.09,535.83 5.48,535.19 C10.02,533.12 8.11,528.00 2.80,528.00 L 0.00 528.00 L 0.00 361.12 C0.00,478.80 0.12,495.69 2.27,495.95 C2.63,496.00 3.05,495.57 3.54,495.07 C3.62,494.98 3.71,494.89 3.80,494.80 C5.67,492.93 5.40,451.33 3.50,448.00 C2.01,445.38 1.50,435.30 2.77,433.40 C3.17,432.79 4.51,431.77 5.75,431.11 C8.44,429.70 8.55,428.22 6.31,423.53 C4.73,420.22 4.73,419.78 6.31,416.47 C8.47,411.95 8.48,404.06 6.33,399.57 C4.76,396.27 4.77,395.84 6.48,392.04 C8.24,388.13 8.24,387.87 6.48,383.96 C4.77,380.16 4.76,379.73 6.33,376.43 C8.72,371.41 8.72,348.59 6.33,343.57 C4.76,340.27 4.77,339.84 6.48,336.04 C8.24,332.14 8.24,331.86 6.50,328.00 C4.76,324.15 4.76,323.85 6.50,320.00 C8.24,316.14 8.24,315.86 6.48,311.96 C4.77,308.16 4.76,307.73 6.33,304.43 C8.36,300.17 8.45,291.41 6.50,288.00 C4.38,284.29 4.50,268.11 6.69,263.53 C8.27,260.22 8.27,259.78 6.69,256.47 C4.64,252.17 4.54,243.43 6.50,240.00 C8.69,236.17 8.56,212.25 6.33,207.57 C4.76,204.27 4.77,203.84 6.48,200.04 C8.22,196.18 8.23,195.83 6.55,192.12 C4.55,187.68 4.79,179.61 7.09,174.17 C8.39,171.10 8.34,170.73 6.50,169.45 C2.60,166.75 2.00,165.89 2.00,162.96 C2.00,161.33 1.55,160.00 1.00,160.00 C0.34,160.00 0.00,216.67 0.00,328.00 ZM 97.22 429.09 C98.49,430.80 100.30,432.00 101.62,432.00 C104.82,432.00 109.22,430.17 108.57,429.11 C107.80,427.87 114.54,426.56 120.18,426.84 C122.85,426.98 126.88,428.16 129.59,429.60 C133.68,431.78 134.70,431.95 137.16,430.93 C139.35,430.02 140.33,430.03 141.45,430.96 C143.73,432.85 146.50,431.81 146.50,429.07 C146.50,426.53 148.02,425.75 155.33,424.52 C158.15,424.05 159.61,423.11 160.83,420.97 C162.96,417.26 170.39,413.25 172.26,414.80 C174.35,416.53 175.49,414.85 175.62,409.87 C175.79,403.05 181.51,393.78 183.53,397.04 C184.41,398.47 185.71,398.20 186.38,396.45 C186.72,395.56 186.56,395.16 185.99,395.51 C185.43,395.85 185.00,394.97 185.00,393.50 C185.00,391.98 185.43,391.15 186.02,391.51 C186.58,391.86 186.77,392.56 186.46,393.07 C186.14,393.58 186.41,394.00 187.06,394.00 C187.74,394.00 188.01,393.16 187.71,392.00 C187.42,390.90 187.56,390.00 188.01,390.00 C188.94,390.00 188.73,387.40 187.72,386.39 C187.35,386.02 186.36,386.28 185.52,386.98 C184.25,388.04 184.00,387.93 184.00,386.29 C184.00,385.21 183.71,384.04 183.36,383.69 C182.28,382.61 181.99,370.13 183.03,369.48 C183.56,369.15 184.56,369.23 185.25,369.67 C185.94,370.10 187.25,370.33 188.17,370.18 C189.42,369.97 189.70,370.43 189.29,372.00 C188.66,374.42 191.61,377.18 194.05,376.45 C195.89,375.90 198.76,377.88 199.20,380.00 C199.36,380.83 201.26,382.44 203.40,383.60 C206.08,385.04 207.64,386.74 208.40,389.06 C209.15,391.34 210.29,392.60 211.96,393.00 C213.51,393.36 214.64,394.49 215.00,396.04 C215.39,397.68 216.65,398.85 218.79,399.55 C222.90,400.90 223.65,401.70 225.31,406.47 L 226.67 410.40 L 234.11 410.74 C239.26,410.98 242.70,410.60 245.28,409.53 C248.59,408.14 249.01,407.56 249.12,404.24 C249.18,402.18 249.34,400.05 249.46,399.50 C249.59,398.95 249.76,397.74 249.85,396.80 C249.93,395.87 251.12,393.89 252.50,392.41 C253.88,390.92 255.02,388.99 255.04,388.10 C255.06,387.22 255.32,384.02 255.61,381.00 C255.90,377.98 256.13,369.73 256.11,362.68 C256.09,351.05 255.85,349.35 253.49,344.21 C251.20,339.18 251.08,338.42 252.45,337.41 C253.37,336.74 254.00,334.76 254.00,332.52 C254.00,329.29 253.79,328.93 252.50,330.00 C250.87,331.35 250.85,331.31 250.64,325.67 C250.55,323.25 249.83,321.35 248.69,320.52 C247.53,319.66 247.26,318.95 247.96,318.53 C248.55,318.16 248.77,317.44 248.46,316.93 C248.14,316.42 248.76,316.00 249.82,316.00 C250.97,316.00 252.00,316.88 252.32,318.13 C252.79,319.93 253.09,320.05 254.19,318.88 C255.84,317.14 256.44,302.91 255.11,296.97 C254.56,294.56 254.50,291.93 254.97,291.06 C256.64,287.94 256.40,270.77 254.58,262.52 C252.83,254.57 252.83,254.52 254.91,253.14 C257.63,251.34 257.56,250.91 254.02,246.89 C252.37,245.02 251.02,243.19 251.02,242.82 C251.00,242.14 247.43,240.61 245.50,240.46 C241.71,240.16 239.99,238.70 239.88,235.68 C239.82,233.93 239.84,231.94 239.93,231.25 C240.08,230.03 238.82,229.58 236.17,229.94 C235.44,230.04 234.61,229.23 234.32,228.13 C233.70,225.74 231.96,224.95 226.00,224.37 C220.29,223.81 217.51,222.41 216.14,219.40 C215.22,217.40 214.68,217.17 212.63,217.95 C211.30,218.46 209.98,218.64 209.69,218.36 C209.20,217.86 206.60,217.23 204.42,217.08 C203.80,217.03 203.53,215.72 203.79,214.00 C204.03,212.35 203.84,210.96 203.36,210.92 C202.89,210.87 201.15,210.63 199.50,210.38 C196.39,209.91 186.09,209.02 180.00,208.69 C177.10,208.53 176.50,208.84 176.50,210.50 C176.50,213.25 175.21,213.97 170.26,213.98 C166.46,214.00 166.05,213.77 166.26,211.75 C166.46,209.87 165.95,209.45 163.17,209.18 C160.54,208.93 159.74,209.28 159.32,210.87 C158.53,213.92 148.73,216.62 147.83,214.03 C147.39,212.74 144.93,214.33 144.64,216.10 C144.22,218.58 142.00,221.93 140.09,222.95 C139.06,223.50 135.85,224.19 132.94,224.48 C127.02,225.07 126.95,225.10 126.58,227.66 C126.43,228.74 125.32,229.64 123.91,229.85 C120.29,230.37 119.00,231.88 119.00,235.62 C119.00,237.48 118.89,239.02 118.75,239.04 C118.61,239.06 116.70,239.33 114.50,239.63 C110.75,240.15 107.08,242.00 109.80,242.00 C110.46,242.00 111.00,242.86 111.00,243.92 C111.00,245.23 110.07,246.05 108.07,246.48 C104.39,247.29 103.36,248.54 102.48,253.24 C101.86,256.57 101.52,256.92 99.39,256.38 C99.19,256.33 99.00,256.28 98.83,256.22 C98.40,256.09 98.07,255.99 97.81,256.08 C96.79,256.44 96.80,259.72 96.30,275.50 C96.23,277.72 96.17,279.30 96.13,280.87 C95.95,287.02 95.98,293.17 96.14,337.64 C96.15,341.90 96.17,346.51 96.19,351.50 C96.30,382.30 96.09,411.70 95.73,416.84 C95.13,425.41 95.25,426.42 97.22,429.09 ZM 524.74 348.96 C539.30,341.79 544.72,324.85 540.90,310.66 C541.19,311.62 541.43,312.39 541.54,312.75 C542.37,315.39 543.80,313.81 544.44,309.55 C545.33,303.65 543.68,297.97 540.36,295.50 C536.31,292.49 534.93,290.93 535.50,290.01 C535.78,289.55 534.88,289.30 533.50,289.45 C532.13,289.60 531.00,289.36 531.00,288.91 C531.00,288.47 528.19,288.13 524.75,288.15 L 518.50 288.20 L 522.59 290.14 C520.95,289.48 519.52,289.08 517.71,288.85 C518.42,288.65 517.78,287.26 516.25,285.95 C514.20,284.21 511.00,284.55 511.00,286.51 C511.00,287.26 512.24,288.05 513.75,288.28 C514.83,288.45 515.94,288.62 516.64,288.74 C514.93,288.59 512.84,288.56 510.00,288.56 C501.68,288.56 499.87,288.89 495.46,291.19 C492.18,292.90 488.60,295.85 485.66,299.07 C488.29,296.09 491.27,293.39 493.45,292.26 C495.16,291.37 495.95,290.49 495.24,290.25 C494.55,290.02 494.27,289.38 494.61,288.83 C495.52,287.35 488.78,288.21 487.14,289.77 C486.40,290.49 486.00,291.89 486.26,292.89 C486.61,294.23 486.20,294.69 484.71,294.61 C483.51,294.54 482.57,293.70 482.40,292.53 C482.06,290.17 479.34,288.00 476.74,288.00 C475.51,288.00 474.52,288.53 471.29,292.36 L 473.98 289.00 L 455.37 289.00 L 448.10 298.66 C455.14,289.18 455.09,288.05 450.25,288.02 C448.98,288.01 447.93,288.65 447.85,289.50 C447.77,290.33 447.65,291.56 447.60,292.25 C447.46,294.06 445.39,296.00 443.61,296.00 C442.67,296.00 441.66,294.47 441.01,292.04 C439.80,287.54 439.13,286.89 436.42,287.60 C435.66,287.80 435.20,288.08 434.95,289.31 L 434.94 289.00 L 426.97 289.00 C421.28,289.00 418.99,289.36 418.97,290.25 C418.70,302.38 419.21,350.52 419.61,351.18 C419.92,351.68 423.39,351.95 427.34,351.79 L 434.50 351.50 L 435.00 338.00 C435.00,352.68 435.82,354.10 441.18,348.98 C442.89,347.34 444.62,346.00 445.03,346.00 C446.30,346.00 448.01,348.65 447.24,349.42 C446.84,349.83 447.33,350.77 448.35,351.51 C450.50,353.08 455.41,351.50 454.28,349.60 C454.02,349.16 453.29,348.13 452.26,346.72 L 456.25 352.00 L 464.56 352.00 C469.14,352.00 473.11,351.64 473.38,351.19 C473.60,350.84 470.48,346.21 465.97,340.09 C470.41,345.92 473.94,350.51 474.54,351.25 C475.33,352.21 476.57,353.00 477.30,353.00 C479.40,353.00 482.09,350.62 482.40,348.47 C482.78,345.91 485.36,345.91 485.85,348.48 C486.37,351.14 488.89,352.83 491.42,352.22 C495.21,351.29 495.90,350.36 493.44,348.07 C502.48,353.74 513.81,354.34 524.74,348.96 ZM 333.50 350.10 C334.94,349.43 336.21,348.74 337.32,348.00 C336.10,348.91 334.81,349.68 333.55,350.21 L 330.50 351.49 L 334.00 352.00 C338.36,352.62 346.73,352.61 347.36,351.97 C347.64,351.69 348.91,348.56 350.71,343.84 C349.49,347.17 348.71,349.33 348.57,349.79 C347.84,352.07 347.89,352.08 356.09,351.79 L 364.33 351.50 L 365.54 347.87 C364.83,350.21 364.48,352.15 364.75,352.42 C366.66,354.32 368.58,351.80 368.88,347.00 C368.94,345.90 369.67,345.00 370.50,345.00 C371.33,345.00 372.00,344.55 372.00,344.00 C372.00,343.45 374.45,343.00 377.44,343.00 C380.43,343.00 383.16,343.45 383.50,344.00 C383.84,344.55 384.57,345.00 385.12,345.00 C385.67,345.00 385.84,344.55 385.50,344.00 C385.16,343.45 385.70,342.99 386.69,342.97 C388.39,342.94 388.39,342.88 386.77,341.93 C386.13,341.56 383.84,341.29 380.97,341.20 L 392.67 340.94 L 393.93 345.20 C393.24,342.89 392.07,341.00 391.34,341.00 C390.60,341.00 390.00,341.45 390.00,342.00 C390.00,342.55 390.34,343.00 390.75,343.00 C391.16,343.00 391.50,344.12 391.50,345.50 C391.50,346.88 391.16,348.00 390.75,348.00 C389.73,348.00 390.27,350.33 391.50,351.23 C392.05,351.64 393.57,351.98 394.87,351.98 C396.65,352.00 396.99,351.69 396.23,350.75 C397.23,351.98 411.06,352.60 412.20,351.47 C412.49,351.17 407.50,336.99 401.12,319.94 L 394.09 301.18 C396.35,307.19 399.39,315.26 402.56,323.75 C413.66,353.46 414.00,354.09 418.17,352.49 C419.60,351.94 419.48,343.00 418.06,343.00 C417.65,343.00 416.78,341.21 416.12,339.01 C415.46,336.82 414.61,335.10 414.21,335.20 C413.82,335.30 412.10,335.05 410.39,334.64 C407.80,334.03 407.33,333.48 407.57,331.33 C407.72,329.91 408.33,328.27 408.93,327.67 C409.52,327.08 410.00,325.09 410.00,323.24 C410.00,319.65 405.80,314.74 401.15,312.90 C399.42,312.22 398.99,311.51 399.54,310.24 C401.34,306.04 401.19,303.25 399.10,301.78 C397.95,300.98 397.32,300.01 397.69,299.64 C399.13,298.21 398.64,294.72 396.95,294.28 C396.00,294.03 394.95,292.51 394.63,290.91 C394.17,288.61 393.51,288.00 391.51,288.00 C389.90,288.00 389.33,288.04 389.48,288.94 L 370.80 289.50 L 360.05 318.50 C359.73,319.35 359.42,320.20 359.11,321.04 C364.55,305.93 369.77,290.85 369.56,290.30 C368.93,288.66 366.00,289.77 366.00,291.65 C366.00,292.45 364.67,293.86 363.05,294.79 C359.03,297.09 357.14,303.86 359.54,307.34 C360.66,308.95 360.33,309.65 356.97,312.92 C354.34,315.46 352.73,318.17 351.92,321.41 C351.06,324.82 350.03,326.49 348.29,327.28 C346.38,328.15 345.67,328.09 344.99,326.98 C344.51,326.20 344.49,325.10 344.95,324.53 C345.41,323.97 346.25,321.84 346.80,319.81 C347.59,316.91 347.49,315.73 346.33,314.31 C345.52,313.31 345.18,313.13 345.58,313.90 C346.06,314.84 345.91,315.07 345.14,314.59 C344.49,314.19 344.24,313.42 344.58,312.87 C345.48,311.41 344.10,306.82 342.97,307.52 C342.71,307.68 342.47,308.05 342.29,308.52 C342.75,306.34 342.81,304.03 342.44,301.83 L 343.29 300.00 C343.93,298.62 344.91,297.17 345.47,296.77 C346.12,296.30 346.03,296.03 345.22,296.02 C344.37,296.01 344.02,294.79 344.18,292.44 C344.47,288.02 343.07,287.07 337.69,288.06 C335.39,288.48 333.21,288.63 332.83,288.39 C332.45,288.16 331.81,288.54 331.41,289.23 C331.01,289.93 331.02,290.19 331.45,289.81 C332.03,289.29 333.61,290.14 335.38,291.57 C331.42,289.49 325.16,289.04 311.25,289.02 L 293.50 289.00 C293.52,288.98 293.53,288.96 293.54,288.94 C293.79,288.54 293.21,287.91 292.25,287.54 C291.11,287.10 289.92,287.62 288.76,289.05 C286.58,291.74 286.58,292.07 288.75,294.78 C291.28,297.96 292.56,297.51 292.84,293.34 C292.87,292.82 292.92,292.30 292.97,291.81 L 292.97 292.25 C292.92,297.38 292.91,303.58 292.93,309.99 C292.80,302.95 292.50,298.00 292.16,298.00 C290.32,298.00 289.11,306.21 288.83,320.50 C288.67,328.75 288.89,336.06 289.33,336.75 C289.76,337.44 290.77,338.00 291.56,338.00 C292.65,338.00 292.95,335.33 292.99,322.39 C293.11,337.45 293.35,350.75 293.59,351.14 C293.88,351.61 302.08,351.99 311.81,351.98 C326.92,351.96 330.08,351.68 333.50,350.10 ZM 147.76 301.56 C146.93,301.69 145.29,302.09 144.12,302.46 C142.23,303.06 142.00,302.75 142.00,299.63 C142.00,297.71 141.55,294.94 140.99,293.48 C140.18,291.34 140.37,290.35 141.99,288.28 C143.10,286.88 144.00,284.43 144.00,282.83 C144.00,277.90 146.59,273.00 149.20,272.98 C152.03,272.97 153.44,272.05 154.32,269.68 C154.93,268.02 155.14,267.99 156.57,269.43 C157.43,270.29 158.49,271.00 158.92,271.00 C160.04,271.00 162.53,267.94 164.12,264.58 C164.88,262.98 166.31,261.55 167.30,261.42 C168.29,261.28 170.21,260.43 171.57,259.55 C174.54,257.60 174.70,257.91 175.43,267.00 C175.72,270.58 176.23,276.09 176.57,279.25 C176.98,283.12 176.83,285.00 176.09,285.00 C175.49,285.00 175.00,285.63 175.00,286.39 C175.00,287.16 173.98,288.04 172.74,288.35 C171.50,288.66 169.67,290.29 168.68,291.96 C166.82,295.11 166.32,295.33 161.80,295.04 C158.75,294.84 152.07,297.67 150.39,299.88 C149.78,300.68 148.60,301.44 147.76,301.56 ZM 509.96 338.49 C510.06,337.97 509.68,337.08 508.88,336.28 C508.26,335.66 507.60,333.85 507.42,332.25 C507.03,328.89 505.30,324.00 504.51,324.00 C504.22,324.00 503.02,324.56 501.86,325.25 C500.16,326.25 499.65,326.25 499.28,325.24 C499.03,324.55 498.47,324.21 498.03,324.48 C497.59,324.76 497.03,323.63 496.79,321.99 C496.54,320.35 496.64,319.00 497.00,319.00 C497.36,319.00 497.62,317.99 497.58,316.75 C497.51,314.86 498.14,314.42 501.48,314.00 C505.60,313.48 508.18,310.54 507.52,307.10 C507.36,306.22 507.80,304.96 508.51,304.31 C509.51,303.37 510.16,303.52 511.49,304.99 C512.43,306.03 512.98,307.24 512.72,307.69 C512.45,308.13 512.64,309.56 513.13,310.86 C513.77,312.58 514.57,313.08 516.01,312.71 C517.10,312.42 518.02,312.48 518.05,312.84 C518.07,313.20 518.32,316.76 518.60,320.75 L 519.11 328.00 L 516.05 328.00 C513.16,328.00 512.34,329.14 512.92,332.36 C513.00,332.83 512.57,333.82 511.95,334.56 C510.63,336.15 511.47,337.91 513.53,338.00 C512.33,338.29 511.12,338.46 509.96,338.49 ZM 479.24 339.52 C478.98,340.88 478.17,342.00 477.44,342.00 C475.97,342.00 473.00,338.23 473.00,336.37 C473.00,335.72 472.21,335.38 471.25,335.61 C468.52,336.26 466.98,334.67 466.31,330.51 C465.97,328.41 464.87,325.87 463.87,324.87 C461.44,322.44 458.80,315.97 459.49,314.16 C459.80,313.36 460.34,313.01 460.70,313.37 C461.06,313.72 462.38,313.05 463.64,311.87 C465.43,310.19 465.71,309.32 464.92,307.85 C463.76,305.69 465.71,304.43 468.91,305.27 C470.16,305.59 471.12,305.04 471.78,303.63 C472.32,302.46 474.22,300.66 475.99,299.63 L 479.21 297.76 L 478.48 300.13 C477.46,303.46 475.90,305.17 474.41,304.60 C472.62,303.92 471.48,309.67 473.03,311.54 C473.89,312.57 473.91,313.00 473.12,313.00 C472.37,313.00 472.00,316.30 472.00,323.09 C472.00,332.35 472.17,333.23 474.00,333.71 C475.10,334.00 476.00,334.60 476.00,335.05 C476.00,335.50 476.84,336.13 477.86,336.45 C479.20,336.88 479.58,337.72 479.24,339.52 ZM 512.32 356.34 C511.96,356.70 512.17,357.00 512.78,357.00 C513.40,357.00 514.26,356.39 514.70,355.65 C516.10,353.28 519.33,352.21 525.25,352.14 C528.40,352.10 531.89,351.59 533.00,351.00 C534.10,350.41 535.02,350.28 535.04,350.71 C535.06,351.15 535.83,350.15 536.75,348.50 C537.67,346.85 538.31,345.13 538.18,344.68 C538.06,344.22 538.30,344.07 538.74,344.34 C539.17,344.60 540.23,344.30 541.10,343.66 C543.84,341.64 545.06,338.23 544.45,334.28 C544.12,332.20 543.74,329.60 543.58,328.50 C543.17,325.50 541.71,326.95 539.97,332.10 C536.66,341.87 527.26,349.76 516.20,352.06 C512.11,352.91 511.13,353.45 511.94,354.42 C512.51,355.12 512.69,355.98 512.32,356.34 ZM 0.00 64.00 C0.00,79.15 0.10,80.00 1.93,80.00 C4.81,80.00 5.48,76.38 3.43,71.85 C1.77,68.17 1.76,67.72 3.33,64.43 C5.26,60.38 5.55,50.95 3.80,49.20 C0.47,45.87 0.00,47.68 0.00,64.00 ZM 309.00 326.00 L 316.57 326.00 C317.40,326.00 318.24,326.02 319.06,326.05 C317.93,326.17 318.20,326.56 319.36,327.84 C320.86,329.50 320.88,330.04 319.56,333.19 C318.12,336.65 318.04,336.69 313.55,336.01 C309.55,335.40 309.00,335.54 309.00,337.16 C309.00,338.79 309.88,339.00 316.75,338.98 L 309.00 339.00 ZM 0.00 601.00 C0.00,608.00 0.00,608.00 2.80,608.00 C8.13,608.00 10.01,602.87 5.44,600.79 C3.87,600.08 2.66,598.53 2.31,596.81 C1.27,591.62 0.00,593.93 0.00,601.00 ZM 0.00 144.00 C0.00,151.70 0.38,158.00 0.84,158.00 C1.30,158.00 2.26,155.57 2.97,152.61 C3.96,148.48 4.00,146.45 3.13,143.96 C2.51,142.17 2.00,138.29 2.00,135.35 C2.00,132.41 1.55,130.00 1.00,130.00 C0.38,130.00 0.00,135.33 0.00,144.00 ZM 309.00 312.50 C309.00,313.69 310.42,314.00 315.78,314.00 L 309.00 314.00 L 309.00 301.00 L 315.78 301.00 C309.61,301.00 309.00,301.19 309.00,303.05 C309.00,304.61 309.37,304.89 310.55,304.23 C311.41,303.75 313.43,303.56 315.05,303.79 C317.29,304.12 318.00,304.76 318.00,306.41 C318.00,309.50 316.13,311.00 312.30,311.00 C310.03,311.00 309.00,311.47 309.00,312.50 ZM 383.96 328.99 C381.22,329.16 377.45,329.00 375.13,328.61 C376.84,327.46 379.31,324.00 378.08,324.00 C377.52,324.00 377.36,323.24 377.71,322.30 C378.15,321.18 378.51,321.02 378.78,321.84 C379.10,322.79 379.52,322.81 380.60,321.92 C381.73,320.98 382.02,321.21 382.12,323.13 C382.18,324.43 382.15,326.29 382.05,327.25 C381.94,328.40 382.49,328.91 383.96,328.99 ZM 287.95 349.90 C288.49,350.92 289.99,351.75 291.28,351.75 C293.29,351.75 293.56,351.34 293.19,348.88 C292.96,347.29 292.26,345.99 291.64,345.98 C291.01,345.98 291.17,345.53 292.00,345.00 C293.00,344.35 293.08,344.03 292.25,344.02 C291.56,344.01 290.09,344.91 288.98,346.02 C287.43,347.57 287.19,348.48 287.95,349.90 ZM 97.84 244.12 C95.53,245.58 98.67,245.17 102.71,243.48 C105.50,242.31 106.08,241.68 105.18,240.78 C103.86,239.46 98.25,240.90 98.84,242.41 C99.02,242.89 98.57,243.66 97.84,244.12 ZM 0.00 104.00 C0.00,107.33 0.44,110.00 1.00,110.00 C1.56,110.00 2.00,107.33 2.00,104.00 C2.00,100.67 1.56,98.00 1.00,98.00 C0.44,98.00 0.00,100.67 0.00,104.00 ZM 416.67 295.33 C417.03,295.70 417.82,295.99 418.42,295.98 C419.01,295.98 418.83,295.53 418.00,295.00 C417.10,294.42 416.98,294.02 417.69,294.02 C418.34,294.01 418.81,293.10 418.73,292.00 C418.51,289.19 416.00,289.49 416.00,292.33 C416.00,293.62 416.30,294.97 416.67,295.33 ZM 502.00 288.50 C502.00,289.47 506.40,287.88 507.22,286.62 C508.35,284.88 505.19,284.66 503.50,286.36 C502.68,287.18 502.00,288.14 502.00,288.50 ZM 1.00 624.00 C1.55,624.00 2.00,622.65 2.00,621.00 C2.00,619.35 1.55,618.00 1.00,618.00 C0.45,618.00 0.00,619.35 0.00,621.00 C0.00,622.65 0.45,624.00 1.00,624.00 ZM 0.00 500.00 C0.00,501.10 0.45,502.00 1.00,502.00 C1.55,502.00 2.00,501.10 2.00,500.00 C2.00,498.90 1.55,498.00 1.00,498.00 C0.45,498.00 0.00,498.90 0.00,500.00 ZM 0.00 516.00 C0.00,517.10 0.45,518.00 1.00,518.00 C1.55,518.00 2.00,517.10 2.00,516.00 C2.00,514.90 1.55,514.00 1.00,514.00 C0.45,514.00 0.00,514.90 0.00,516.00 ZM 313.60 333.16 C314.02,333.84 314.58,333.82 315.30,333.10 C316.58,331.82 315.59,330.52 314.05,331.47 C313.45,331.84 313.25,332.60 313.60,333.16 ZM 196.00 214.00 C196.00,214.55 195.58,215.00 195.06,215.00 C194.54,215.00 193.84,214.55 193.50,214.00 C193.16,213.45 193.58,213.00 194.44,213.00 C195.30,213.00 196.00,213.45 196.00,214.00 ZM 435.44 312.71 C435.62,313.97 435.81,314.59 436.00,314.39 C436.45,313.94 440.23,309.05 444.69,303.18 L 435.50 315.38 ZM 435.50 324.50 L 442.62 333.94 C438.95,329.17 435.76,325.14 435.48,325.00 ZM 487.58 343.35 C485.51,341.53 484.37,340.04 482.73,337.18 C484.18,339.48 485.81,341.54 487.58,343.35 ZM 535.99 300.31 C537.82,302.68 539.22,305.23 539.99,307.74 L 540.19 308.38 C539.19,305.51 537.79,302.78 535.99,300.31 ZM 342.04 309.58 C342.01,309.77 342.00,309.97 342.00,310.16 C342.00,310.89 341.33,312.21 340.34,313.56 C341.08,312.36 341.64,311.00 342.04,309.58 ZM 341.99 343.31 C343.14,341.36 343.75,339.09 343.94,336.32 C343.85,338.23 343.56,340.02 343.06,341.34 C342.82,341.96 342.46,342.63 341.99,343.31 ZM 337.08 317.12 L 335.04 319.16 L 334.85 319.00 ZM 519.38 335.42 C523.19,332.72 525.33,327.84 525.85,322.65 C525.35,327.88 523.21,332.78 519.38,335.42 ZM 343.39 329.56 C342.97,328.03 342.31,326.63 341.39,325.30 C341.87,325.94 342.27,326.55 342.54,327.07 C342.88,327.74 343.17,328.60 343.39,329.56 ZM 453.24 315.47 L 456.71 310.93 C458.44,308.68 460.58,305.92 462.67,303.24 C461.80,304.37 460.87,305.58 459.87,306.87 ZM 328.31 333.86 C327.95,335.63 327.04,337.27 325.60,338.23 C326.85,337.40 327.86,335.67 328.31,333.86 ZM 325.30 326.74 C325.58,326.82 325.80,326.89 325.95,326.97 C326.69,327.37 327.27,327.99 327.69,328.74 C327.13,327.86 326.34,327.20 325.30,326.74 ZM 505.50 337.83 C503.40,337.07 501.20,335.58 499.33,333.77 C501.20,335.58 503.41,337.07 505.50,337.80 C505.81,337.91 506.13,338.01 506.44,338.12 C506.12,338.03 505.80,337.94 505.50,337.83 ZM 341.54 298.56 C341.86,299.15 342.04,299.69 342.07,300.11 C341.92,299.58 341.74,299.06 341.54,298.56 ZM 367.67 341.50 L 367.69 341.50 L 366.74 344.28 ZM 338.32 321.93 C338.23,321.85 338.14,321.78 338.06,321.70 C338.14,321.77 338.23,321.85 338.32,321.93 Z" fill="rgb(254,254,254)"/> -->
  <path d="M 179.63 253.02 C179.55,253.01 179.47,253.00 179.39,253.00 C179.16,253.00 178.97,253.31 178.80,254.14 C178.06,257.10 178.00,267.58 178.00,303.50 L 178.00 253.41 L 173.58 252.23 C170.06,251.29 168.27,251.32 164.83,252.39 C159.01,254.19 155.00,256.14 155.00,257.16 C155.00,257.62 154.17,258.00 153.16,258.00 C152.15,258.00 150.80,259.15 150.16,260.56 C149.52,261.96 148.60,262.87 148.13,262.58 C147.05,261.91 144.77,264.51 142.72,268.75 C141.65,270.97 141.52,272.00 142.31,272.00 C142.94,272.00 141.85,273.10 139.87,274.44 C134.07,278.38 134.29,275.59 133.56,356.00 C133.13,403.26 132.73,416.58 131.75,416.88 C131.06,417.09 129.72,417.94 128.76,418.78 C126.21,421.00 108.52,421.21 104.75,419.06 C104.28,418.79 103.88,418.68 103.54,418.47 C101.56,417.24 101.73,412.57 101.53,352.06 C101.40,316.59 101.06,304.52 100.18,304.23 C98.83,303.78 98.55,299.00 99.87,299.00 C100.35,299.00 101.02,296.86 101.35,294.25 C102.84,282.60 103.98,277.70 105.97,274.33 C107.47,271.78 107.91,269.86 107.46,267.81 C106.94,265.43 107.32,264.46 109.54,262.55 C111.66,260.73 112.13,259.64 111.64,257.70 C111.12,255.63 111.32,255.27 112.79,255.66 C115.38,256.33 117.80,253.11 118.18,248.50 C118.35,246.30 118.95,244.55 119.50,244.62 C120.05,244.69 121.73,245.03 123.23,245.39 C125.81,245.99 125.91,245.89 125.01,243.52 C124.15,241.25 124.38,240.87 127.37,239.62 C129.44,238.75 131.42,236.81 132.65,234.45 C133.74,232.34 135.48,230.54 136.56,230.39 C142.91,229.52 144.52,228.98 149.09,226.13 C152.14,224.24 155.46,223.00 157.51,223.00 C159.36,223.00 161.16,222.55 161.50,222.00 C161.84,221.45 164.99,221.00 168.50,221.00 C172.10,221.00 175.18,220.52 175.57,219.89 C175.99,219.20 177.63,219.02 179.88,219.43 C181.87,219.78 185.30,220.28 187.50,220.53 C193.70,221.25 195.56,221.72 198.85,223.42 C200.53,224.29 202.99,225.00 204.33,225.00 C206.57,225.00 209.52,227.15 208.58,228.09 C208.35,228.32 209.29,228.57 210.67,228.65 C212.04,228.73 214.04,229.74 215.12,230.90 C216.20,232.05 217.67,233.00 218.39,233.00 C219.12,233.00 220.90,234.11 222.37,235.46 C223.83,236.82 225.62,237.70 226.35,237.42 C227.71,236.90 233.63,243.41 235.96,248.00 C236.66,249.38 238.05,251.18 239.04,252.00 C240.04,252.82 241.48,255.75 242.25,258.50 C243.38,262.52 244.28,263.78 246.83,264.93 C250.40,266.54 250.70,267.44 248.41,269.73 C247.36,270.78 247.04,272.19 247.45,273.91 C249.13,280.87 249.17,290.66 247.53,296.50 C246.60,299.80 245.89,304.11 245.95,306.08 C246.02,308.28 245.29,310.63 244.05,312.21 C242.94,313.61 241.61,315.89 241.09,317.26 C240.36,319.18 239.24,319.88 236.32,320.24 C232.29,320.75 229.82,319.65 230.56,317.68 C230.81,317.03 229.66,315.60 228.01,314.50 C226.36,313.40 225.00,312.16 225.00,311.75 C225.00,311.34 224.13,311.00 223.06,311.00 C221.99,311.00 220.81,310.50 220.43,309.89 C220.06,309.28 218.94,311.07 217.95,313.88 C217.76,314.43 217.56,314.97 217.37,315.51 C218.56,311.32 218.96,307.00 219.00,300.79 C219.19,304.46 219.40,307.00 219.55,307.00 C220.73,307.00 222.03,302.74 221.17,301.69 C220.63,301.03 220.23,297.12 220.28,293.00 C220.37,285.07 219.54,281.00 217.83,281.00 C217.20,281.00 217.10,281.69 217.59,282.75 C217.79,283.20 218.02,284.70 218.22,286.81 C217.41,281.25 215.89,276.85 213.40,272.86 C213.47,272.83 213.55,272.78 213.63,272.70 C214.84,271.49 211.72,265.94 208.62,263.77 C206.90,262.58 205.13,261.00 204.68,260.27 C203.49,258.32 192.00,253.12 187.69,252.56 C182.23,251.87 183.21,253.47 189.07,254.83 C191.58,255.41 195.33,256.86 197.86,258.20 C193.42,255.89 183.62,253.05 179.75,253.01 C179.71,253.01 179.67,253.02 179.63,253.02 ZM 209.60 267.83 C211.52,269.80 212.89,271.49 212.99,272.22 C212.01,270.72 210.88,269.27 209.60,267.83 ZM 204.88 337.35 C202.61,339.91 200.10,342.27 197.30,344.51 C199.64,342.58 201.88,340.48 203.94,338.30 C204.26,337.98 204.57,337.66 204.88,337.35 ZM 184.91 352.46 C182.84,353.43 181.12,354.00 180.03,354.00 C180.89,354.00 182.87,353.36 184.91,352.46 ZM 198.60 258.61 C198.62,258.62 198.64,258.63 198.66,258.65 C198.95,258.81 199.25,259.00 199.56,259.21 C199.22,258.99 198.90,258.79 198.60,258.61 Z" fill="rgb(123,44,234)"/>
  <path d="M 136.44 422.10 C136.13,422.60 127.79,423.00 117.91,423.00 C103.81,423.00 99.83,422.71 99.42,421.66 C98.94,420.40 99.26,343.17 99.74,303.89 C99.87,304.05 100.02,304.17 100.18,304.23 C101.06,304.52 101.40,316.59 101.53,352.06 C101.73,412.57 101.56,417.24 103.54,418.47 C103.88,418.68 104.28,418.79 104.75,419.06 C108.52,421.21 126.21,421.00 128.76,418.78 C129.72,417.94 131.06,417.09 131.75,416.88 C132.73,416.58 133.13,403.26 133.56,356.00 C134.29,275.59 134.07,278.38 139.87,274.44 C141.85,273.10 142.94,272.00 142.31,272.00 C141.52,272.00 141.65,270.97 142.72,268.75 C144.77,264.51 147.05,261.91 148.13,262.58 C148.60,262.87 149.52,261.96 150.16,260.56 C150.80,259.15 152.15,258.00 153.16,258.00 C154.17,258.00 155.00,257.62 155.00,257.16 C155.00,256.14 159.01,254.19 164.83,252.39 C168.27,251.32 170.06,251.29 173.58,252.23 L 176.67 253.06 L 173.25 253.53 C162.44,255.02 155.91,258.15 148.76,265.31 C144.33,269.74 139.12,280.60 137.94,287.87 C137.44,290.91 137.03,322.15 137.01,357.30 C137.00,392.45 136.74,421.61 136.44,422.10 ZM 99.80 299.00 C99.94,288.80 100.09,282.09 100.23,281.50 C100.50,280.40 100.96,278.83 101.25,278.00 C101.55,277.17 102.79,273.58 104.01,270.00 C110.50,251.07 125.32,234.51 143.75,225.61 C148.01,223.55 152.32,221.42 153.33,220.87 C154.34,220.33 160.11,219.23 166.15,218.44 C183.90,216.11 201.17,219.10 215.93,227.07 C218.91,228.68 221.71,230.00 222.14,230.00 C225.35,230.00 246.00,253.24 246.00,256.85 C246.00,257.22 246.83,259.10 247.85,261.01 C250.17,265.38 252.13,275.65 252.25,284.07 C252.35,291.38 251.21,301.55 250.01,303.91 C249.57,304.78 247.71,308.65 245.88,312.50 C242.16,320.32 238.12,326.00 236.28,326.00 C235.62,326.00 231.45,322.81 227.02,318.90 L 218.98 311.80 L 217.41 315.65 C217.30,315.91 217.19,316.17 217.09,316.43 C217.18,316.12 217.28,315.81 217.37,315.51 C217.56,314.97 217.76,314.43 217.95,313.88 C218.94,311.07 220.06,309.28 220.43,309.89 C220.81,310.50 221.99,311.00 223.06,311.00 C224.13,311.00 225.00,311.34 225.00,311.75 C225.00,312.16 226.36,313.40 228.01,314.50 C229.66,315.60 230.81,317.03 230.56,317.68 C229.82,319.65 232.29,320.75 236.32,320.24 C239.24,319.88 240.36,319.18 241.09,317.26 C241.61,315.89 242.94,313.61 244.05,312.21 C245.29,310.63 246.02,308.28 245.95,306.08 C245.89,304.11 246.60,299.80 247.53,296.50 C249.17,290.66 249.13,280.87 247.45,273.91 C247.04,272.19 247.36,270.78 248.41,269.73 C250.70,267.44 250.40,266.54 246.83,264.93 C244.28,263.78 243.38,262.52 242.25,258.50 C241.48,255.75 240.04,252.82 239.04,252.00 C238.05,251.18 236.66,249.38 235.96,248.00 C233.63,243.41 227.71,236.90 226.35,237.42 C225.62,237.70 223.83,236.82 222.37,235.46 C220.90,234.11 219.12,233.00 218.39,233.00 C217.67,233.00 216.20,232.05 215.12,230.90 C214.04,229.74 212.04,228.73 210.67,228.65 C209.29,228.57 208.35,228.32 208.58,228.09 C209.52,227.15 206.57,225.00 204.33,225.00 C202.99,225.00 200.53,224.29 198.85,223.42 C195.56,221.72 193.70,221.25 187.50,220.53 C185.30,220.28 181.87,219.78 179.88,219.43 C177.63,219.02 175.99,219.20 175.57,219.89 C175.18,220.52 172.10,221.00 168.50,221.00 C164.99,221.00 161.84,221.45 161.50,222.00 C161.16,222.55 159.36,223.00 157.51,223.00 C155.46,223.00 152.14,224.24 149.09,226.13 C144.52,228.98 142.91,229.52 136.56,230.39 C135.48,230.54 133.74,232.34 132.65,234.45 C131.42,236.81 129.44,238.75 127.37,239.62 C124.38,240.87 124.15,241.25 125.01,243.52 C125.91,245.89 125.81,245.99 123.23,245.39 C121.73,245.03 120.05,244.69 119.50,244.62 C118.95,244.55 118.35,246.30 118.18,248.50 C117.80,253.11 115.38,256.33 112.79,255.66 C111.32,255.27 111.12,255.63 111.64,257.70 C112.13,259.64 111.66,260.73 109.54,262.55 C107.32,264.46 106.94,265.43 107.46,267.81 C107.91,269.86 107.47,271.78 105.97,274.33 C103.98,277.70 102.84,282.60 101.35,294.25 C101.02,296.86 100.35,299.00 99.87,299.00 C99.85,299.00 99.82,299.00 99.80,299.00 ZM 209.60 267.83 C208.77,266.89 207.87,265.96 206.91,265.03 C204.99,263.17 201.91,260.74 199.56,259.21 C199.25,259.00 198.95,258.81 198.66,258.65 C198.64,258.63 198.62,258.62 198.60,258.61 C198.57,258.60 198.55,258.58 198.53,258.57 C198.32,258.45 198.10,258.33 197.86,258.20 L 197.86 258.20 C195.32,256.85 191.58,255.41 189.07,254.83 C183.21,253.47 182.23,251.87 187.69,252.56 C192.00,253.12 203.49,258.32 204.68,260.27 C205.13,261.00 206.90,262.58 208.62,263.77 C211.72,265.94 214.84,271.49 213.63,272.70 C213.55,272.78 213.47,272.83 213.40,272.86 C213.27,272.64 213.13,272.43 212.99,272.22 C212.89,271.49 211.52,269.80 209.60,267.83 ZM 137.09 301.00 C137.34,288.58 137.71,285.75 139.64,281.25 C141.99,275.77 141.40,274.21 138.60,278.49 C137.52,280.13 136.71,284.59 136.19,291.74 C135.49,301.37 135.68,316.68 136.49,315.83 C136.66,315.65 136.93,308.98 137.09,301.00 ZM 219.55 307.00 C219.40,307.00 219.19,304.46 219.00,300.79 C219.00,300.44 219.00,300.09 219.00,299.73 C219.00,294.75 218.77,290.52 218.22,286.81 C218.02,284.70 217.79,283.20 217.59,282.75 C217.10,281.69 217.20,281.00 217.83,281.00 C219.54,281.00 220.37,285.07 220.28,293.00 C220.23,297.12 220.63,301.03 221.17,301.69 C222.03,302.74 220.73,307.00 219.55,307.00 ZM 204.88 337.35 C205.08,337.15 205.27,336.95 205.46,336.75 C203.09,339.51 200.43,342.01 197.30,344.51 C200.10,342.27 202.61,339.91 204.88,337.35 Z" fill="rgb(120,47,219)"/>
  <path d="M 139.00 321.00 C137.82,321.00 137.34,321.34 137.09,332.58 C137.12,327.46 137.16,322.61 137.21,318.11 L 142.81 312.76 C151.39,304.58 165.54,298.05 174.75,298.01 L 178.00 298.00 L 178.00 303.50 C178.00,353.61 178.02,354.00 180.03,354.00 C180.89,354.00 182.87,353.36 184.91,352.46 C185.25,352.31 185.59,352.15 185.92,351.99 C183.42,353.31 181.34,354.68 181.17,355.13 C180.60,356.62 178.12,356.08 177.12,354.25 C176.60,353.29 171.35,348.23 165.46,343.00 C159.57,337.77 154.24,333.03 153.62,332.45 C145.29,324.65 140.63,321.00 139.00,321.00 ZM 188.92 350.39 C191.76,348.74 194.59,346.74 197.30,344.51 L 197.30 344.51 C199.37,342.85 201.24,341.20 202.95,339.47 C198.90,343.80 194.29,347.36 188.92,350.39 ZM 156.89 258.78 C161.47,256.01 166.53,254.45 173.25,253.53 C166.90,254.40 161.49,256.12 156.89,258.78 ZM 137.80 289.53 C137.84,288.72 137.89,288.17 137.94,287.87 C138.21,286.23 138.68,284.40 139.31,282.50 C138.64,284.69 138.15,286.95 137.80,289.53 ZM 136.44 422.10 C136.46,422.07 136.48,421.86 136.51,421.49 L 136.50 422.50 L 133.89 422.54 C135.42,422.41 136.34,422.26 136.44,422.10 ZM 145.53 269.42 C146.61,267.78 147.71,266.36 148.76,265.31 C148.81,265.26 148.86,265.21 148.91,265.16 C147.70,266.47 146.58,267.89 145.53,269.42 ZM 103.49 422.72 C100.67,422.56 99.64,422.23 99.43,421.68 C99.43,421.68 99.43,421.68 99.43,421.68 C99.65,422.19 100.74,422.52 103.49,422.72 ZM 99.34 350.47 C99.44,333.54 99.58,316.69 99.74,303.89 L 99.74 303.89 C99.58,316.70 99.44,333.54 99.34,350.47 ZM 99.80 299.01 C99.94,288.82 100.09,282.10 100.23,281.50 C100.09,282.10 99.94,288.81 99.80,299.00 Z" fill="rgb(200,90,114)"/>
  <path d="M 239.06 404.25 C237.74,405.76 236.39,406.98 236.08,406.96 C235.76,406.94 233.24,404.58 230.47,401.71 C227.26,398.38 226.91,397.85 229.51,400.25 C233.73,404.14 237.43,405.02 240.04,402.75 C240.82,402.06 240.39,402.74 239.06,404.25 Z" fill="rgb(231,146,161)"/>
  <path d="M 186.78 351.56 C187.49,351.19 188.21,350.80 188.92,350.39 C194.29,347.36 198.90,343.80 202.95,339.47 C203.82,338.59 204.66,337.68 205.46,336.75 C207.99,334.09 209.84,331.71 210.39,330.20 C210.94,329.36 211.45,328.52 211.91,327.69 C213.78,324.34 215.18,321.55 216.22,318.89 C216.62,317.97 216.90,317.21 216.98,316.77 C217.02,316.65 217.05,316.54 217.09,316.43 C217.19,316.17 217.30,315.91 217.41,315.65 L 218.98 311.80 L 227.02 318.90 C231.45,322.81 235.62,326.00 236.28,326.00 C237.29,326.00 238.97,324.28 240.89,321.44 C240.43,322.14 240.01,322.74 239.65,323.20 L 236.75 326.89 L 240.44 331.20 C245.23,336.78 250.74,348.07 252.00,354.89 C253.46,362.76 253.22,374.73 251.47,381.45 C249.47,389.14 243.78,399.85 239.50,404.00 L 236.08 407.32 L 228.29 399.82 C224.00,395.69 218.48,390.53 216.00,388.35 C213.52,386.17 204.44,378.00 195.81,370.19 C187.18,362.39 179.64,356.00 179.06,356.00 C178.36,356.00 178.00,361.36 178.00,371.91 C178.00,390.26 176.70,396.09 170.56,405.34 C166.33,411.72 161.72,415.69 153.90,419.70 C149.08,422.17 148.54,422.44 131.21,422.71 C132.23,422.66 133.14,422.60 133.89,422.54 L 136.50 422.50 L 136.51 421.49 C136.78,417.09 137.00,389.75 137.01,357.30 C137.02,348.71 137.05,340.35 137.09,332.58 C137.34,321.34 137.82,321.00 139.00,321.00 C140.63,321.00 145.29,324.65 153.62,332.45 C154.24,333.03 159.57,337.77 165.46,343.00 C171.35,348.23 176.60,353.29 177.12,354.25 C178.12,356.08 180.60,356.62 181.17,355.13 C181.34,354.68 183.42,353.31 185.92,351.99 C186.21,351.85 186.50,351.71 186.78,351.56 ZM 239.06 404.25 C240.39,402.74 240.82,402.06 240.04,402.75 C237.43,405.02 233.73,404.14 229.51,400.25 C226.91,397.85 227.26,398.38 230.47,401.71 C233.24,404.58 235.76,406.94 236.08,406.96 C236.39,406.98 237.74,405.76 239.06,404.25 ZM 108.42 422.92 C101.59,422.86 99.75,422.51 99.45,421.74 C99.45,421.73 99.45,421.73 99.45,421.72 C99.69,422.25 100.74,422.56 103.49,422.72 C104.76,422.81 106.37,422.88 108.42,422.92 ZM 99.73 303.88 L 99.74 303.89 C99.58,316.69 99.44,333.53 99.34,350.45 C99.44,333.53 99.58,316.69 99.73,303.88 ZM 99.80 299.01 L 99.79 299.01 C99.93,288.87 100.08,282.18 100.23,281.51 C100.09,282.17 99.94,288.87 99.80,299.01 ZM 245.61 313.07 C245.70,312.88 245.79,312.69 245.88,312.50 C247.71,308.66 249.56,304.80 250.01,303.92 C249.56,304.80 247.71,308.66 245.88,312.50 C245.79,312.69 245.70,312.88 245.61,313.07 Z" fill="rgb(251,124,127)"/>
</svg>
